<svg xmlns="http://www.w3.org/2000/svg" width="14" height="22" viewBox="0 0 14 22">
  <metadata><?xpacket begin="﻿" id="W5M0MpCehiHzreSzNTczkc9d"?>
<x:xmpmeta xmlns:x="adobe:ns:meta/" x:xmptk="Adobe XMP Core 5.6-c138 79.159824, 2016/09/14-01:09:01        ">
   <rdf:RDF xmlns:rdf="http://www.w3.org/1999/02/22-rdf-syntax-ns#">
      <rdf:Description rdf:about=""/>
   </rdf:RDF>
</x:xmpmeta>
                                                                                                    
                                                                                                    
                                                                                                    
                                                                                                    
                                                                                                    
                                                                                                    
                                                                                                    
                                                                                                    
                                                                                                    
                                                                                                    
                                                                                                    
                                                                                                    
                                                                                                    
                                                                                                    
                                                                                                    
                                                                                                    
                                                                                                    
                                                                                                    
                                                                                                    
                                                                                                    
                           
<?xpacket end="w"?></metadata>
<defs>
    <style>
      .cls-1 {
        fill: #797979;
        fill-rule: evenodd;
      }
    </style>
  </defs>
  <path id="currency" class="cls-1" d="M2880.47,434.644a8.54,8.54,0,0,0-4.54-1.954v7.219c4.26,0.822,6.05,2.287,6.05,4.805,0,2.724-2.49,4.651-6,4.754v2.518h-1.34v-2.544a11.563,11.563,0,0,1-6.65-2.748l0.93-1a9.634,9.634,0,0,0,5.77,2.6v-7.323c-4.2-.847-5.94-2.261-5.94-4.83,0-2.594,2.47-4.573,5.89-4.65v-1.49h1.34v1.542a9.987,9.987,0,0,1,5.42,2.107Zm-5.78,5.01v-7.015c-2.72.051-4.51,1.542-4.51,3.391C2870.18,437.752,2871.02,438.832,2874.69,439.654Zm1.24,1.567v7.09c2.8-.051,4.63-1.542,4.63-3.494C2880.56,443.07,2879.63,441.991,2875.93,441.221Z" transform="translate(-2868 -430)"/>
</svg>
