<svg xmlns="http://www.w3.org/2000/svg" width="97" height="40" viewBox="0 0 97 40">
  <metadata><?xpacket begin="﻿" id="W5M0MpCehiHzreSzNTczkc9d"?>
<x:xmpmeta xmlns:x="adobe:ns:meta/" x:xmptk="Adobe XMP Core 5.6-c138 79.159824, 2016/09/14-01:09:01        ">
   <rdf:RDF xmlns:rdf="http://www.w3.org/1999/02/22-rdf-syntax-ns#">
      <rdf:Description rdf:about=""/>
   </rdf:RDF>
</x:xmpmeta>
                                                                                                    
                                                                                                    
                                                                                                    
                                                                                                    
                                                                                                    
                                                                                                    
                                                                                                    
                                                                                                    
                                                                                                    
                                                                                                    
                                                                                                    
                                                                                                    
                                                                                                    
                                                                                                    
                                                                                                    
                                                                                                    
                                                                                                    
                                                                                                    
                                                                                                    
                                                                                                    
                           
<?xpacket end="w"?></metadata>
<defs>
    <style>
      .cls-1 {
        fill: #353535;
        fill-rule: evenodd;
      }
    </style>
  </defs>
  <path id="logo1" class="cls-1" d="M2833.47,390.129c-0.46-.175-0.96-0.386-1.51-0.564q-2.235-.711-4.98-1.458t-5.77-1.434q-3.03-.685-5.84-1.1a38.332,38.332,0,0,0-5.22-.43,10.837,10.837,0,0,0-3.88.553,44.365,44.365,0,0,1,4.41-2.942q2.4-1.414,4.92-2.729c1.67-.875,3.34-1.712,4.99-2.511s3.18-1.577,4.59-2.336,2.69-1.477,3.8-2.156a12.621,12.621,0,0,0,2.57-2,4.447,4.447,0,0,0,.99-1.644,7.105,7.105,0,0,0,.38-1.764,3.442,3.442,0,0,0-.11-1.316q-0.165-.5-0.48-0.3-3.36,1.826-6.54,3.968-3.165,2.143-6.38,4.091c-1.12.653-2.31,1.361-3.58,2.124s-2.54,1.541-3.82,2.334-2.53,1.592-3.76,2.4-2.37,1.589-3.4,2.353a23.831,23.831,0,0,1,.94-3.206,24.512,24.512,0,0,1,1.37-3.056c0.52-.968,1.05-1.873,1.61-2.715a23.369,23.369,0,0,1,1.67-2.233c0.14-.155.1-0.361-0.12-0.611a2.39,2.39,0,0,0-.97-0.607,3.711,3.711,0,0,0-1.37-.209,2.086,2.086,0,0,0-1.39.631,14.721,14.721,0,0,0-2.96,4.425,43.872,43.872,0,0,0-2.1,5.655c-0.58,1.973-1.08,3.913-1.48,5.817s-0.76,3.54-1.05,4.91a0.282,0.282,0,0,0,.31.314,2.126,2.126,0,0,0,.83-0.092,7.268,7.268,0,0,0,1.03-.39,2.544,2.544,0,0,0,.87-0.622,2.928,2.928,0,0,0,.48-0.755c0.16-.348.32-0.731,0.48-1.153s0.29-.847.41-1.28,0.22-.814.3-1.143a4.413,4.413,0,0,0,1.16.552,2.023,2.023,0,0,0,1.11.114,18.4,18.4,0,0,1,3.84-.553,39.914,39.914,0,0,1,4.59.069c1.62,0.113,3.3.3,5.03,0.574s3.44,0.58,5.13.939q2.565,0.537,4.93,1.174c1.31,0.354,2.55.706,3.71,1.06a0.561,0.561,0,0,0,.68-0.118A0.61,0.61,0,0,0,2833.47,390.129Zm18.89-17.137a3.582,3.582,0,0,0-.87-0.425,1.722,1.722,0,0,0-.76-0.1,1.5,1.5,0,0,0-.61.4,3.252,3.252,0,0,0-.53.733,6.761,6.761,0,0,0-.39.863,2.854,2.854,0,0,0-.18.7,0.844,0.844,0,0,0,.2.589,2.278,2.278,0,0,0,.57.5,3.432,3.432,0,0,0,.76.339,2.327,2.327,0,0,0,.68.121,1.537,1.537,0,0,0,.63-0.361,5.282,5.282,0,0,0,1.23-1.534,1.207,1.207,0,0,0,.21-0.685,0.744,0.744,0,0,0-.25-0.544A3.134,3.134,0,0,0,2852.36,372.992Zm39.09,6.015a0.735,0.735,0,0,0-1,.213c-0.77.686-1.59,1.475-2.47,2.366s-1.7,1.761-2.47,2.608-1.41,1.58-1.93,2.2-0.82.979-.9,1.068a31.422,31.422,0,0,1,1.92-3.081c0.64-.9,1.21-1.687,1.7-2.354l1.2-1.665a1.82,1.82,0,0,0,.44-1.017,1.225,1.225,0,0,0-.27-0.632,2.042,2.042,0,0,0-.63-0.54,3.5,3.5,0,0,0-.78-0.338,1.588,1.588,0,0,0-.71-0.077,0.822,0.822,0,0,0-.31.29,4.487,4.487,0,0,1-.5.557c-0.35.357-.73,0.758-1.13,1.2s-0.8.869-1.2,1.271-0.76.751-1.1,1.049a3.349,3.349,0,0,1-.85.584q-0.48.185-.12-0.371c0.23-.37.54-0.814,0.92-1.332s0.74-1.044,1.08-1.576a1.293,1.293,0,0,0,.34-1.1,1.468,1.468,0,0,0-.47-0.694,5.033,5.033,0,0,0-.9-0.666,2.965,2.965,0,0,0-.96-0.358,0.832,0.832,0,0,0-.72.142,7.387,7.387,0,0,0-1.13,1.445c-0.32.511-.62,1.03-0.91,1.558-0.04.032-.08,0.066-0.12,0.105-0.22.208-.57,0.558-1.06,1.048s-1.01.975-1.57,1.452-1.08.881-1.55,1.211a1.19,1.19,0,0,1-.94.366c-0.16-.086-0.13-0.356.08-0.814s0.45-.973.73-1.548,0.53-1.128.76-1.658a1.809,1.809,0,0,0,.23-1.145,1.323,1.323,0,0,0-.49-0.629,3.97,3.97,0,0,0-.84-0.469,3.541,3.541,0,0,0-.9-0.249,1.126,1.126,0,0,0-.62.032,4.745,4.745,0,0,0-.92.8c-0.48.476-.98,1.01-1.52,1.6s-1.05,1.152-1.54,1.671a7.536,7.536,0,0,1-.93.915,3.479,3.479,0,0,1,.17-0.551q0.15-.375.3-0.839a4.937,4.937,0,0,0,.23-0.926,1.535,1.535,0,0,0-.04-0.767,1.759,1.759,0,0,0-.37-0.675,2.752,2.752,0,0,0-.65-0.6,1.833,1.833,0,0,0-.73-0.3,0.642,0.642,0,0,0-.62.208,3.468,3.468,0,0,0-.84,1.264c-0.12.271-.22,0.546-0.32,0.824a4.78,4.78,0,0,1-.85.533,3.749,3.749,0,0,1-2.11.385,3.234,3.234,0,0,0-.56-1.879,2.608,2.608,0,0,0-1.72-1.07,1.317,1.317,0,0,0-.67-0.823,2.252,2.252,0,0,0-1.15-.29,3.3,3.3,0,0,0-1.77.533,4.986,4.986,0,0,0-1.36,1.317,6.774,6.774,0,0,0-.77,1.391,15.986,15.986,0,0,1-1.44,1.234q-0.765.584-1.41,0.988a9.086,9.086,0,0,1-1.14.611,0.879,0.879,0,0,1-.63.12,0.624,0.624,0,0,1,.02-0.7c0.15-.382.32-0.81,0.51-1.281s0.39-.936.59-1.393a3.492,3.492,0,0,0,.31-1.036,0.96,0.96,0,0,0-.19-0.612,1.978,1.978,0,0,0-.5-0.453,4.216,4.216,0,0,0-.67-0.34,5.789,5.789,0,0,0-.68-0.231,0.938,0.938,0,0,0-.76.451,7.4,7.4,0,0,0-.78,1.241,9.656,9.656,0,0,0-.57,1.472q-0.465.243-1.29,0.731c-0.69.406-1.39,0.805-2.11,1.2s-1.37.724-1.96,1a1.549,1.549,0,0,1-1.04.279,0.549,0.549,0,0,1-.12-0.634,4.634,4.634,0,0,1,.34-0.949,11.191,11.191,0,0,1,.68-1.241q1.53-1.209,3.3-2.8t3.51-3.327q1.74-1.74,3.32-3.5t2.76-3.292a21.125,21.125,0,0,0,1.88-2.774,3.75,3.75,0,0,0,.63-1.941,1.477,1.477,0,0,0-.64-1.066,4.242,4.242,0,0,0-1.36-.682,6.443,6.443,0,0,0-1.57-.26,2.962,2.962,0,0,0-1.23.151,8.636,8.636,0,0,0-3.04,2.156,36.173,36.173,0,0,0-3.26,3.87,56,56,0,0,0-3.13,4.726q-1.485,2.5-2.64,4.717t-1.83,3.892c-0.01.029-.02,0.054-0.03,0.083-0.39.392-.79,0.766-1.19,1.122-0.51.447-.96,0.842-1.38,1.185a12.285,12.285,0,0,1-1.05.807,0.7,0.7,0,0,1-.58.207c-0.13-.086-0.11-0.291.03-0.615s0.34-.694.57-1.107,0.45-.819.65-1.217a1.928,1.928,0,0,0,.27-0.948,0.723,0.723,0,0,0-.23-0.568,2.082,2.082,0,0,0-.59-0.43,4.865,4.865,0,0,0-.75-0.294c-0.27-.084-0.53-0.153-0.77-0.208a1.425,1.425,0,0,0-1.02.5,1.724,1.724,0,0,0-.56-0.693,4.835,4.835,0,0,0-.89-0.514,3.965,3.965,0,0,0-.95-0.292,2.494,2.494,0,0,0-.78-0.031,2.7,2.7,0,0,0-1.28.744,11.044,11.044,0,0,0-1.52,1.627,9.994,9.994,0,0,0-1.17,1.972,2.434,2.434,0,0,0-.22,1.781,2.7,2.7,0,0,0,.81,1.217,5.859,5.859,0,0,0,1.29.879,4.948,4.948,0,0,0,1.43.482,3.33,3.33,0,0,0,1.19.025,3.741,3.741,0,0,0,1.02-.564c0.33-.254.67-0.515,1.03-0.785a5.526,5.526,0,0,0,1.87.892,3.44,3.44,0,0,0,1.63.15,2.423,2.423,0,0,0,1.04-.719,14.343,14.343,0,0,0,1.2-1.424c0.13-.181.26-0.36,0.4-0.539a2.077,2.077,0,0,0,.47.9,3.379,3.379,0,0,0,1.18.837,4.334,4.334,0,0,0,1.44.351,5.613,5.613,0,0,0,1.32-.043,4.859,4.859,0,0,0,1.41-.593,11.971,11.971,0,0,0,1.52-1.1c0.5-.432,1.02-0.894,1.53-1.385a1.533,1.533,0,0,1,.13-0.119v0.006a2.325,2.325,0,0,0,.41,1.421,3.881,3.881,0,0,0,1.06,1.058,5.005,5.005,0,0,0,1.29.638,2.8,2.8,0,0,0,1.14.158,3.325,3.325,0,0,0,.97-0.564c0.41-.314.86-0.687,1.34-1.118,0.33-.3.65-0.61,0.97-0.937a2.5,2.5,0,0,0,.49,1.287,4.751,4.751,0,0,0,1.32,1.208,4.908,4.908,0,0,0,1.56.634,2.419,2.419,0,0,0,1.3-.021,5.353,5.353,0,0,0,1.96-1.084,6.227,6.227,0,0,0,1.3-1.6,7.58,7.58,0,0,0,3.03-1c-0.02.136-.04,0.269-0.06,0.4a3.449,3.449,0,0,0-.01,1.075,1.718,1.718,0,0,0,.84,1.106,2.432,2.432,0,0,0,1.22.354,2.257,2.257,0,0,0,1.12-.676c0.5-.447,1.01-0.938,1.5-1.473s1.14-1.262,1.92-2.181a2.864,2.864,0,0,1-.21.486q-0.2.443-.42,0.973a9.906,9.906,0,0,0-.37,1.059,1.508,1.508,0,0,0-.1.7,1.631,1.631,0,0,0,.64.934,4.212,4.212,0,0,0,1.32.725,7.292,7.292,0,0,0,1.6.37,2.814,2.814,0,0,0,1.46-.177,3.517,3.517,0,0,0,1.17-.852c0.49-.477.99-1,1.52-1.583l0.18-.2v0a1.525,1.525,0,0,0,.52.716,4.885,4.885,0,0,0,.87.556,6.035,6.035,0,0,0,.91.381,2.453,2.453,0,0,0,.72.142,2.27,2.27,0,0,0,1.31-.679,20.594,20.594,0,0,0,1.6-1.518q-1.35,2.392-2.76,5.115t-2.63,5.112q-1.215,2.39-2.1,4.159c-0.59,1.18-.97,1.933-1.15,2.258a0.835,0.835,0,0,0-.14.946,1.435,1.435,0,0,0,.79.47,3.722,3.722,0,0,0,1.16.113,2.676,2.676,0,0,0,1-.213,2.4,2.4,0,0,0,.79-1.308q0.42-1.125,1.11-2.805c0.46-1.119,1.06-2.366,1.79-3.738a24.683,24.683,0,0,1,2.91-4.194q1.53-1.78,2.97-3.3c0.95-1.011,1.81-1.895,2.55-2.653s1.36-1.367,1.85-1.829a8.168,8.168,0,0,0,.89-0.914c0.38-.475.42-0.82,0.14-1.035h0Zm-44.65-9.016c0.69-.917,1.36-1.813,2.02-2.688s1.28-1.637,1.84-2.289a12.742,12.742,0,0,1,1.44-1.471c0.4-.328.66-0.42,0.79-0.277,0.2,0.232.1,0.709-.29,1.432a21.411,21.411,0,0,1-1.69,2.529c-0.72.963-1.56,1.986-2.51,3.069s-1.88,2.123-2.78,3.117-1.73,1.865-2.49,2.608-1.32,1.264-1.68,1.563q2.94-4.305,5.35-7.593h0Zm-17.38,11.252a10.352,10.352,0,0,1-.98,1.727,6.911,6.911,0,0,1-1.27,1.4,1.08,1.08,0,0,1-1.19.3c-0.15-.056-0.18-0.253-0.07-0.592a6.122,6.122,0,0,1,.5-1.149,12.469,12.469,0,0,1,.83-1.352,8.889,8.889,0,0,1,.98-1.2,3.111,3.111,0,0,1,.91-0.673,0.448,0.448,0,0,1,.64.209,3.122,3.122,0,0,1-.35,1.324h0Zm26.82,2.954c-0.45.242-.76,0.247-0.92,0.015a1.469,1.469,0,0,1-.21-1.423,6.186,6.186,0,0,1,.88-2.012,4.111,4.111,0,0,0,.61,1.373,3.3,3.3,0,0,0,.92.93A4.231,4.231,0,0,1,2856.24,384.2Zm38.56-9.927a0.669,0.669,0,0,0-.66-0.674h-1.03v2.279h0.36v-0.893h0.5l0.48,0.893h0.42c-0.12-.211-0.49-0.873-0.53-0.945a0.646,0.646,0,0,0,.46-0.662h0Zm-0.88.425h-0.45v-0.81h0.49a0.4,0.4,0,0,1,.47.4,0.42,0.42,0,0,1-.51.41h0Zm-0.01-2.036a2.078,2.078,0,1,0,2.09,2.079v0a2.081,2.081,0,0,0-2.09-2.077h0Zm0,3.861a1.784,1.784,0,1,1,1.79-1.785h0a1.788,1.788,0,0,1-1.79,1.784h0Zm-49.34,13.692-1.61,4.464h-0.76l-1.61-4.464h0.86l1.13,3.488,1.14-3.488h0.85Zm2.29,4.464a1.384,1.384,0,0,1-.08-0.313,1.171,1.171,0,0,1-.88.374,1.331,1.331,0,0,1-.59-0.13,1.028,1.028,0,0,1-.4-0.358,0.894,0.894,0,0,1-.15-0.5,0.95,0.95,0,0,1,.4-0.811,1.9,1.9,0,0,1,1.12-.284h0.47v-0.217a0.525,0.525,0,0,0-.58-0.571,0.745,0.745,0,0,0-.31.06,0.5,0.5,0,0,0-.21.163,0.454,0.454,0,0,0-.07.231h-0.75a0.8,0.8,0,0,1,.18-0.5,1.149,1.149,0,0,1,.48-0.377,1.73,1.73,0,0,1,.72-0.143,1.634,1.634,0,0,1,.67.129,1,1,0,0,1,.46.385,1.129,1.129,0,0,1,.16.627v1.471a1.607,1.607,0,0,0,.13.714v0.053h-0.77Zm-0.38-.655a0.661,0.661,0,0,0,.27-0.28v-0.626h-0.45c-0.53.012-.79,0.2-0.79,0.555a0.454,0.454,0,0,0,.14.339,0.539,0.539,0,0,0,.39.13A0.838,0.838,0,0,0,2846.48,394.021Zm2.55,0.357v1.573h-0.74v-4.592h0.69l0.03,0.334a1.109,1.109,0,0,1,.9-0.4,1.214,1.214,0,0,1,.71.21,1.317,1.317,0,0,1,.44.59,2.426,2.426,0,0,1,.15.892v0.062a2.363,2.363,0,0,1-.15.869,1.313,1.313,0,0,1-.45.6,1.134,1.134,0,0,1-.7.218A1.164,1.164,0,0,1,2849.03,394.378Zm0-2.091v1.462a0.714,0.714,0,0,0,.67.39,0.612,0.612,0,0,0,.57-0.307,1.435,1.435,0,0,0,.19-0.784v-0.062a1.419,1.419,0,0,0-.19-0.782,0.628,0.628,0,0,0-.57-0.3A0.706,0.706,0,0,0,2849.03,392.287Zm2.67,0.7a2.027,2.027,0,0,1,.19-0.866,1.438,1.438,0,0,1,.54-0.6,1.665,1.665,0,0,1,1.64-.006,1.478,1.478,0,0,1,.54.589,2.094,2.094,0,0,1,.2.847v0.1a2.015,2.015,0,0,1-.19.867,1.4,1.4,0,0,1-.53.6,1.582,1.582,0,0,1-.83.218,1.533,1.533,0,0,1-.83-0.218,1.424,1.424,0,0,1-.54-0.6,2.015,2.015,0,0,1-.19-0.867v-0.065Zm0.75,0.065a1.6,1.6,0,0,0,.09.554,0.737,0.737,0,0,0,.27.39,0.7,0.7,0,0,0,.45.144,0.67,0.67,0,0,0,.44-0.144,0.867,0.867,0,0,0,.27-0.39,1.6,1.6,0,0,0,.09-0.554v-0.065a1.6,1.6,0,0,0-.09-0.55,0.891,0.891,0,0,0-.27-0.394,0.688,0.688,0,0,0-.45-0.147,0.679,0.679,0,0,0-.44.147,0.891,0.891,0,0,0-.27.394,1.6,1.6,0,0,0-.09.55v0.065Zm3.73-.644v2.269h-0.74v-3.317h0.71l0.02,0.373a0.84,0.84,0,0,1,.75-0.435,0.785,0.785,0,0,1,.27.04l-0.01.7a2.1,2.1,0,0,0-.3-0.024A0.692,0.692,0,0,0,2856.18,392.407Zm3.22,1.088a1.411,1.411,0,0,0-.57-0.208,2.343,2.343,0,0,1-.9-0.354,0.738,0.738,0,0,1-.31-0.63,0.839,0.839,0,0,1,.16-0.5,1.027,1.027,0,0,1,.45-0.366,1.557,1.557,0,0,1,.67-0.137,1.665,1.665,0,0,1,.71.138,1.073,1.073,0,0,1,.47.377,0.925,0.925,0,0,1,.16.54h-0.75a0.513,0.513,0,0,0-.06-0.245,0.538,0.538,0,0,0-.21-0.183,0.649,0.649,0,0,0-.32-0.069,0.626,0.626,0,0,0-.41.12,0.385,0.385,0,0,0-.14.3,0.3,0.3,0,0,0,.13.258,1.693,1.693,0,0,0,.55.187,3.188,3.188,0,0,1,.68.213,0.986,0.986,0,0,1,.41.318,0.764,0.764,0,0,1,.14.483,0.867,0.867,0,0,1-.16.521,1.058,1.058,0,0,1-.48.358,1.821,1.821,0,0,1-.7.127,1.674,1.674,0,0,1-.76-0.158,1.213,1.213,0,0,1-.49-0.414,0.973,0.973,0,0,1-.16-0.538h0.72a0.508,0.508,0,0,0,.21.417,0.868,0.868,0,0,0,.48.135,0.746,0.746,0,0,0,.45-0.112,0.335,0.335,0,0,0,.16-0.293A0.358,0.358,0,0,0,2859.4,393.5Zm5.95,1.181v-1.987h-2.01v1.987h-0.77v-4.464h0.77v1.858h2.01v-1.858h0.78v4.464h-0.78Zm3.67,0-0.02-.326a1.163,1.163,0,0,1-.94.387,1.077,1.077,0,0,1-.8-0.3,1.3,1.3,0,0,1-.3-0.927v-2.154h0.75v2.148a0.637,0.637,0,0,0,.15.477,0.536,0.536,0,0,0,.38.143,0.765,0.765,0,0,0,.74-0.383v-2.385h0.75v3.317h-0.71Zm4.4-1.625a2.381,2.381,0,0,1-.15.875,1.347,1.347,0,0,1-.44.6,1.175,1.175,0,0,1-.71.215,1.118,1.118,0,0,1-.92-0.423l-0.03.362h-0.68v-4.709h0.75v1.711a1.1,1.1,0,0,1,.87-0.381,1.218,1.218,0,0,1,.72.212,1.321,1.321,0,0,1,.44.593,2.4,2.4,0,0,1,.15.884v0.065Zm-2.18-.718V393.7a0.714,0.714,0,0,0,.69.432,0.618,0.618,0,0,0,.57-0.3,1.75,1.75,0,0,0,.17-0.846,1.607,1.607,0,0,0-.17-0.784,0.622,0.622,0,0,0-.58-0.3A0.71,0.71,0,0,0,2871.24,392.333Z" transform="translate(-2799 -361)"/>
</svg>
