<svg
        xmlns="http://www.w3.org/2000/svg"
        xmlns:xlink="http://www.w3.org/1999/xlink"
        width="293px" height="80px">
    <path fill-rule="evenodd"  fill="rgb(0, 0, 0)"
          d="M289.598,22.052 C287.835,23.831 285.707,24.720 283.215,24.720 C280.418,24.720 278.129,23.649 276.349,21.506 C274.908,19.775 274.188,17.808 274.188,15.605 C274.188,13.359 274.904,11.384 276.337,9.678 C278.142,7.544 280.435,6.476 283.215,6.476 C285.716,6.476 287.845,7.366 289.604,9.144 C291.363,10.923 292.242,13.076 292.242,15.605 C292.242,18.125 291.361,20.274 289.598,22.052 ZM288.902,9.854 C287.336,8.272 285.441,7.480 283.215,7.480 C280.998,7.480 279.104,8.274 277.534,9.861 C275.964,11.448 275.180,13.363 275.180,15.605 C275.180,17.846 275.964,19.761 277.534,21.348 C279.104,22.936 280.998,23.729 283.215,23.729 C285.432,23.729 287.326,22.936 288.896,21.348 C290.466,19.761 291.251,17.846 291.251,15.605 C291.251,13.354 290.468,11.438 288.902,9.854 ZM287.608,20.963 C286.714,20.963 285.909,20.420 285.192,19.333 L283.295,16.459 L283.194,16.292 C283.092,16.121 282.924,16.036 282.688,16.036 L281.676,16.036 L281.562,16.049 L281.524,16.203 L281.524,18.866 C281.524,19.458 281.602,19.846 281.759,20.030 C281.916,20.215 282.270,20.337 282.821,20.397 C283.067,20.422 283.194,20.514 283.202,20.673 C283.211,20.841 283.092,20.925 282.845,20.925 C282.769,20.925 282.616,20.912 282.386,20.886 C282.191,20.860 281.872,20.847 281.430,20.847 L280.295,20.847 C280.150,20.847 279.942,20.865 279.670,20.899 C279.474,20.916 279.347,20.925 279.287,20.925 C279.066,20.925 278.956,20.839 278.956,20.667 C278.956,20.539 279.049,20.453 279.235,20.410 C279.625,20.316 279.873,20.143 279.979,19.890 C280.085,19.638 280.138,19.093 280.138,18.254 L280.138,12.840 L280.125,12.057 C280.125,11.330 279.875,10.928 279.375,10.851 L279.019,10.799 C278.799,10.758 278.689,10.661 278.689,10.510 C278.689,10.343 278.807,10.259 279.044,10.259 C279.103,10.259 279.284,10.272 279.589,10.298 C279.749,10.306 279.973,10.310 280.260,10.310 C280.496,10.310 280.889,10.293 281.438,10.259 C281.852,10.233 282.211,10.220 282.515,10.220 C284.940,10.220 286.152,11.120 286.152,12.918 C286.152,14.052 285.550,14.939 284.345,15.578 L286.368,18.554 L286.621,18.915 C287.254,19.843 287.823,20.320 288.329,20.346 L288.569,20.358 C288.729,20.367 288.805,20.443 288.797,20.585 C288.780,20.837 288.384,20.963 287.608,20.963 ZM284.817,13.293 C284.817,12.632 284.567,12.079 284.066,11.634 C283.565,11.189 282.947,10.967 282.213,10.967 C281.745,10.967 281.511,11.153 281.511,11.526 L281.524,11.780 L281.524,14.819 C281.524,15.022 281.545,15.145 281.587,15.187 C281.628,15.230 281.749,15.251 281.950,15.251 L282.801,15.251 C284.145,15.251 284.817,14.598 284.817,13.293 ZM262.147,18.082 L260.042,21.265 L252.174,33.144 L251.397,34.260 C250.576,35.441 250.166,36.524 250.166,37.508 L250.166,51.225 C250.166,53.763 250.371,55.316 250.781,55.885 C251.191,56.454 252.368,56.837 254.311,57.033 C254.980,57.098 255.315,57.322 255.315,57.706 C255.315,58.219 254.936,58.475 254.179,58.475 C253.941,58.475 253.378,58.420 252.491,58.311 C251.951,58.246 251.161,58.180 250.123,58.115 L247.560,57.984 L245.028,58.056 C243.428,58.056 242.357,58.093 241.816,58.166 C241.189,58.263 240.778,58.311 240.583,58.311 C240.085,58.311 239.837,58.130 239.837,57.767 C239.837,57.341 240.193,57.074 240.906,56.968 C242.719,56.706 243.868,56.219 244.354,55.508 C244.840,54.797 245.083,53.271 245.083,50.930 L245.115,49.519 L245.115,39.740 C245.115,38.340 245.018,37.312 244.824,36.655 C244.629,35.999 244.154,35.069 243.399,33.866 L234.365,19.329 L233.264,17.524 C232.638,16.496 231.753,15.660 230.609,15.014 C229.464,14.369 228.331,14.046 227.209,14.046 C226.583,14.046 226.270,13.850 226.270,13.456 C226.270,12.976 226.604,12.735 227.272,12.735 C227.810,12.735 228.359,12.772 228.920,12.843 C230.320,13.012 231.785,13.096 233.314,13.096 C236.481,13.096 238.506,13.047 239.389,12.948 C240.337,12.850 240.908,12.801 241.102,12.801 C241.726,12.801 242.039,13.015 242.039,13.441 C242.039,13.761 241.790,13.995 241.294,14.144 C239.848,14.582 239.125,15.326 239.125,16.376 C239.125,16.945 239.591,17.995 240.525,19.527 L241.437,21.103 L248.244,31.934 L248.668,32.590 C248.863,32.896 249.059,33.050 249.254,33.050 C249.491,33.050 249.716,32.897 249.932,32.592 L250.255,32.101 L254.937,24.906 L256.519,22.355 C258.026,19.934 258.779,18.310 258.779,17.481 C258.779,16.020 257.419,14.962 254.699,14.308 C254.159,14.177 253.900,13.926 253.922,13.555 C253.943,13.183 254.192,12.998 254.668,12.998 C254.993,12.998 255.566,13.058 256.389,13.176 C257.016,13.276 258.531,13.325 260.932,13.325 C263.139,13.325 264.546,13.292 265.152,13.227 C265.974,13.140 266.547,13.085 266.872,13.063 C267.456,13.020 267.748,13.212 267.748,13.639 C267.748,13.980 267.478,14.236 266.939,14.406 C265.017,15.041 263.420,16.266 262.147,18.082 ZM220.374,15.750 C219.953,16.515 219.743,17.945 219.743,20.042 L219.743,23.581 L219.678,25.743 L219.678,53.200 C219.678,55.668 219.624,57.170 219.516,57.705 C219.408,58.240 219.106,58.497 218.610,58.475 C218.286,58.453 218.037,58.355 217.865,58.180 L217.153,57.328 L189.857,25.743 L189.533,25.383 C189.403,25.252 189.252,25.186 189.079,25.186 C188.669,25.186 188.464,25.678 188.464,26.662 L188.464,48.900 L188.432,50.277 L188.529,52.606 C188.680,54.049 189.047,55.044 189.630,55.591 C190.213,56.137 191.357,56.542 193.062,56.804 C193.774,56.890 194.131,57.167 194.131,57.637 C194.131,58.064 193.904,58.278 193.451,58.278 C193.148,58.278 192.824,58.256 192.479,58.213 C192.242,58.169 191.303,58.103 189.662,58.016 L186.360,57.852 L184.805,57.912 C183.963,57.912 183.165,57.961 182.409,58.061 C181.848,58.140 181.449,58.180 181.211,58.180 C180.650,58.180 180.348,57.977 180.305,57.572 C180.283,57.251 180.585,56.985 181.211,56.771 C183.024,56.137 184.249,55.291 184.886,54.230 C185.523,53.170 185.841,51.459 185.841,49.098 L185.841,26.801 C185.841,23.020 185.248,20.041 184.061,17.866 C182.873,15.691 181.157,14.451 178.912,14.144 C178.329,14.059 178.038,13.814 178.038,13.409 C178.038,13.004 178.275,12.801 178.750,12.801 C178.858,12.801 179.031,12.812 179.268,12.834 L180.596,12.867 L182.765,12.932 L183.284,12.899 C183.802,12.878 184.201,12.867 184.482,12.867 C185.021,12.867 185.561,13.183 186.101,13.817 L215.890,47.958 C216.364,48.504 216.667,48.766 216.797,48.744 C217.012,48.722 217.131,48.515 217.153,48.121 L217.153,31.903 L217.185,27.480 L216.797,19.944 C216.580,18.087 216.046,16.771 215.194,15.996 C214.341,15.221 212.803,14.647 210.580,14.275 C209.953,14.169 209.641,13.902 209.641,13.475 C209.641,13.069 209.953,12.867 210.580,12.867 C210.860,12.867 211.313,12.897 211.940,12.956 C213.429,13.115 215.425,13.194 217.930,13.194 C219.268,13.194 220.336,13.129 221.135,12.998 C221.826,12.867 222.355,12.801 222.722,12.801 C223.283,12.801 223.585,13.030 223.629,13.489 C223.650,13.773 223.434,13.981 222.981,14.112 C221.664,14.439 220.795,14.985 220.374,15.750 ZM148.820,78.729 C130.761,75.918 119.429,70.498 107.900,69.395 C105.511,69.166 103.396,69.008 101.522,68.885 C101.472,68.889 101.433,68.905 101.379,68.905 C101.149,68.905 100.858,68.872 100.536,68.821 C99.001,68.725 97.661,68.651 96.500,68.581 L92.540,68.500 L88.931,68.784 C88.339,68.865 87.850,68.905 87.463,68.905 C86.913,68.905 86.637,68.628 86.637,68.074 C86.637,67.600 86.953,67.296 87.585,67.163 C89.135,66.812 90.134,66.102 90.583,65.033 C91.031,63.965 91.255,61.713 91.255,58.278 L91.255,23.547 C91.255,20.194 90.965,17.935 90.384,16.772 C89.803,15.608 88.564,14.824 86.668,14.418 C86.036,14.260 85.709,13.943 85.689,13.467 C85.669,12.886 85.964,12.595 86.576,12.595 C86.739,12.595 86.923,12.611 87.127,12.640 C88.615,12.881 90.593,13.001 93.060,13.001 C94.569,13.001 95.863,12.956 96.944,12.866 L98.993,12.640 C99.380,12.611 99.636,12.595 99.758,12.595 C100.308,12.595 100.584,12.847 100.584,13.349 C100.584,13.825 100.318,14.181 99.788,14.418 L98.198,15.231 C96.689,15.989 95.935,19.223 95.935,24.935 L95.935,55.307 C95.935,59.097 96.108,61.601 96.455,62.819 C96.634,63.426 96.833,63.949 97.049,64.399 C100.777,63.961 107.783,64.004 119.730,66.859 C139.900,71.678 153.401,75.412 165.428,68.559 C177.456,61.706 175.751,65.897 173.594,68.676 C171.436,71.456 166.879,81.540 148.820,78.729 ZM150.950,58.770 C143.977,58.770 138.338,56.631 134.032,52.353 C129.725,48.075 127.572,42.465 127.572,35.523 C127.572,32.511 128.138,29.526 129.272,26.568 C130.405,23.611 131.932,21.139 133.853,19.153 C135.882,17.057 138.451,15.393 141.560,14.160 C144.668,12.926 147.852,12.310 151.112,12.310 C157.868,12.310 163.411,14.422 167.739,18.645 C172.067,22.869 174.231,28.277 174.231,34.869 C174.231,41.854 172.050,47.583 167.690,52.058 C163.330,56.533 157.750,58.770 150.950,58.770 ZM163.638,20.966 C159.727,16.615 154.855,14.439 149.021,14.439 C144.009,14.439 140.028,16.146 137.079,19.559 C134.130,22.972 132.655,27.569 132.655,33.348 C132.655,39.956 134.541,45.529 138.311,50.065 C142.081,54.602 146.710,56.870 152.198,56.870 C157.210,56.870 161.347,55.021 164.610,51.325 C167.872,47.628 169.503,42.944 169.503,37.274 C169.503,30.753 167.548,25.317 163.638,20.966 ZM121.498,58.311 C121.174,58.311 120.764,58.275 120.268,58.202 C119.598,58.105 118.454,58.056 116.835,58.056 L112.140,57.984 L108.320,58.213 C107.693,58.278 107.175,58.311 106.765,58.311 C106.183,58.311 105.891,58.087 105.891,57.639 C105.891,57.255 106.226,57.009 106.895,56.902 C108.535,56.618 109.593,56.044 110.068,55.180 C110.543,54.315 110.780,52.494 110.780,49.716 L110.780,21.626 C110.780,18.914 110.473,17.087 109.858,16.146 C109.242,15.205 107.931,14.571 105.923,14.243 C105.254,14.115 104.909,13.858 104.887,13.473 C104.866,13.003 105.179,12.768 105.826,12.768 C105.999,12.768 106.193,12.781 106.409,12.805 C107.985,12.999 110.079,13.096 112.691,13.096 C114.288,13.096 115.659,13.060 116.803,12.987 L118.972,12.805 C119.382,12.781 119.652,12.768 119.782,12.768 C120.365,12.768 120.656,12.971 120.656,13.377 C120.656,13.762 120.376,14.051 119.814,14.243 L118.131,14.899 C116.533,15.513 115.735,18.129 115.735,22.748 L115.735,47.313 C115.735,50.379 115.918,52.404 116.285,53.389 C116.717,54.505 117.251,55.294 117.888,55.753 C118.524,56.213 119.523,56.542 120.883,56.739 C121.962,56.888 122.502,57.156 122.502,57.541 C122.502,58.054 122.167,58.311 121.498,58.311 ZM84.645,58.147 C84.451,58.147 84.041,58.125 83.415,58.082 C82.292,57.972 80.295,57.918 77.425,57.918 C74.424,57.918 72.546,57.984 71.791,58.115 C71.337,58.202 71.002,58.246 70.787,58.246 C70.225,58.246 69.945,58.021 69.945,57.574 C69.945,57.233 70.215,57.009 70.754,56.902 L71.758,56.672 C72.837,56.454 73.377,55.709 73.377,54.440 C73.377,53.280 72.719,50.971 71.402,47.513 L69.783,43.179 C69.330,41.975 68.974,41.280 68.715,41.094 C68.455,40.908 67.721,40.815 66.513,40.815 L54.791,40.815 C53.194,40.815 52.201,40.946 51.812,41.209 C51.424,41.472 50.906,42.347 50.258,43.835 L48.134,48.661 C47.175,50.872 46.696,52.514 46.696,53.586 C46.696,54.615 46.950,55.359 47.457,55.819 C47.964,56.279 48.963,56.672 50.452,57.001 C51.100,57.129 51.434,57.385 51.456,57.768 C51.477,58.130 51.176,58.311 50.552,58.311 C50.315,58.311 49.948,58.299 49.454,58.274 L46.353,58.090 C45.319,58.041 44.124,58.016 42.768,58.016 C42.143,58.016 41.659,58.032 41.315,58.062 C40.216,58.184 39.614,58.246 39.506,58.246 C39.017,58.246 38.746,58.094 38.668,57.808 L35.433,57.783 L16.135,34.649 C15.192,35.138 14.272,35.667 13.373,36.245 L13.373,47.313 C13.373,50.379 13.556,52.404 13.923,53.389 C14.355,54.505 14.889,55.294 15.526,55.753 C16.162,56.213 17.161,56.542 18.521,56.739 C19.600,56.888 20.140,57.156 20.140,57.541 C20.140,58.054 19.805,58.311 19.136,58.311 C18.813,58.311 18.402,58.275 17.906,58.202 C17.237,58.105 16.093,58.056 14.474,58.056 L9.779,57.984 L5.958,58.213 C5.331,58.278 4.813,58.311 4.404,58.311 C3.821,58.311 3.529,58.087 3.529,57.639 C3.529,57.255 3.864,57.009 4.533,56.902 C6.173,56.618 7.231,56.044 7.706,55.180 C8.181,54.315 8.419,52.494 8.419,49.716 L8.419,39.627 C3.513,43.086 1.241,44.948 0.916,44.096 C0.503,43.015 1.968,41.350 1.968,41.350 C1.968,41.350 3.305,38.949 8.419,35.210 L8.419,21.626 C8.419,18.914 8.111,17.087 7.496,16.146 C6.881,15.205 5.569,14.571 3.562,14.243 C2.892,14.115 2.547,13.858 2.526,13.473 C2.504,13.003 2.817,12.768 3.465,12.768 C3.637,12.768 3.831,12.781 4.047,12.805 C5.623,12.999 7.717,13.096 10.329,13.096 C11.926,13.096 13.297,13.060 14.441,12.987 L16.611,12.805 C17.021,12.781 17.291,12.768 17.420,12.768 C18.003,12.768 18.294,12.971 18.294,13.377 C18.294,13.762 18.014,14.051 17.453,14.243 L15.769,14.899 C14.171,15.513 13.373,18.129 13.373,22.748 L13.373,31.949 C15.299,30.796 17.512,29.573 20.102,28.291 C30.702,23.041 39.716,20.439 45.145,16.364 C53.933,9.768 56.275,3.951 56.828,1.763 C56.360,5.619 55.871,15.244 43.885,22.411 C35.093,27.669 27.760,29.797 21.427,32.291 L38.843,53.830 L41.945,55.213 C42.006,55.138 42.067,55.065 42.131,54.984 C42.864,54.055 43.469,53.088 43.944,52.082 L44.883,49.918 L61.526,12.507 C61.807,11.851 62.120,11.523 62.465,11.523 C62.810,11.523 63.102,11.841 63.339,12.475 L77.263,48.568 L77.975,50.340 C78.989,52.987 79.831,54.633 80.501,55.278 C81.170,55.923 82.530,56.432 84.581,56.804 C85.249,56.932 85.573,57.199 85.552,57.604 C85.530,57.966 85.228,58.147 84.645,58.147 ZM67.063,36.129 L66.901,35.540 L61.818,22.565 L61.559,21.877 C61.300,21.178 61.019,20.818 60.717,20.796 C60.565,20.774 60.393,20.981 60.199,21.418 L53.885,35.605 C53.604,36.217 53.464,36.621 53.464,36.818 C53.464,37.386 53.960,37.669 54.953,37.669 L55.827,37.702 L65.606,37.702 C66.685,37.702 67.225,37.429 67.225,36.883 C67.225,36.731 67.171,36.479 67.063,36.129 ZM56.828,1.763 C56.867,1.439 56.906,1.150 56.952,0.913 C56.997,0.678 57.020,1.003 56.828,1.763 Z"/>
</svg>