<svg
        xmlns="http://www.w3.org/2000/svg"
        xmlns:xlink="http://www.w3.org/1999/xlink"
        width="19px" height="20px">
    <path fill-rule="evenodd"  fill="rgb(89, 89, 109)"
          d="M17.665,19.992 C16.227,16.846 13.040,14.823 9.500,14.823 C5.965,14.823 2.779,16.846 1.337,19.992 L0.006,19.992 C1.028,17.403 3.110,15.348 5.768,14.324 L6.267,14.132 L5.800,13.874 C3.414,12.558 1.931,10.085 1.931,7.418 C1.931,3.335 5.327,0.014 9.500,0.014 C13.675,0.014 17.071,3.335 17.071,7.418 C17.071,10.086 15.590,12.560 13.206,13.874 L12.738,14.132 L13.237,14.324 C15.892,15.348 17.975,17.403 18.998,19.992 L17.665,19.992 ZM9.500,1.214 C6.005,1.214 3.162,3.997 3.162,7.418 C3.162,10.839 6.005,13.622 9.500,13.622 C12.998,13.622 15.844,10.839 15.844,7.418 C15.844,3.997 12.998,1.214 9.500,1.214 Z"/>
</svg>