<?xml version="1.0" encoding="UTF-8"?>
<svg xmlns="http://www.w3.org/2000/svg" xmlns:xlink="http://www.w3.org/1999/xlink" width="100pt" height="105pt" viewBox="0 0 100 105" version="1.1">
<g id="surface1">
<path style=" stroke:none;fill-rule:evenodd;fill:rgb(34.901961%,34.901961%,42.745098%);fill-opacity:1;" d="M 92.972656 104.957031 C 85.40625 88.441406 68.632812 77.820312 50 77.820312 C 31.394531 77.820312 14.625 88.441406 7.035156 104.957031 L 0.03125 104.957031 C 5.410156 91.367188 16.367188 80.578125 30.359375 75.199219 L 32.984375 74.191406 L 30.527344 72.839844 C 17.96875 65.929688 10.164062 52.945312 10.164062 38.945312 C 10.164062 17.507812 28.035156 0.0742188 50 0.0742188 C 71.972656 0.0742188 89.847656 17.507812 89.847656 38.945312 C 89.847656 52.953125 82.050781 65.941406 69.503906 72.839844 L 67.042969 74.191406 L 69.667969 75.199219 C 83.640625 80.578125 94.605469 91.367188 99.988281 104.957031 Z M 50 6.375 C 31.605469 6.375 16.640625 20.984375 16.640625 38.945312 C 16.640625 56.90625 31.605469 71.515625 50 71.515625 C 68.410156 71.515625 83.390625 56.90625 83.390625 38.945312 C 83.390625 20.984375 68.410156 6.375 50 6.375 Z M 50 6.375 "/>
</g>
</svg>
